<svg id="Layer_1" fill="#00639a" enable-background="new 0 0 512 512" viewBox="0 0 512 512" xmlns="http://www.w3.org/2000/svg"><path d="m377.929 356.454c-8.064-2.158-16.466-1.064-23.657 3.089l-73.796 42.603c-.715-3.46-1.975-6.829-3.785-9.994-4.477-7.825-11.698-13.429-20.334-15.779l-86.403-23.518c-.345-.095-.696-.165-1.051-.212-13.627-1.803-26.069 1.517-36.979 9.872l-20.529 15.722-.129-.483c-1.87-6.979-9.07-11.134-16.053-9.269l-20.558 5.509c-6.98 1.869-11.138 9.07-9.268 16.053l29.806 111.236c.904 3.375 3.074 6.199 6.108 7.952 2.024 1.169 4.269 1.767 6.54 1.767 1.136 0 2.278-.149 3.403-.451l20.558-5.509c3.377-.904 6.202-3.075 7.954-6.111 1.751-3.036 2.218-6.566 1.313-9.941l-.761-2.84c11.34-8.174 21.517-10.333 34.229-7.417l49.492 11.347c4.456 1.021 8.801 1.531 13.024 1.531 8.779 0 17.029-2.204 24.639-6.598l123.765-71.454c14.891-8.596 20.011-27.706 11.415-42.601-4.15-7.192-10.878-12.343-18.943-14.504zm-268.031 137.893-28.308-105.646 14.969-4.011 28.308 105.646zm267.56-94.644-123.765 71.454c-7.765 4.482-16.3 5.569-26.088 3.327l-49.491-11.347c-15.383-3.525-28.747-1.465-42.173 6.709l-20.066-74.887 25.777-19.741c7.387-5.658 15.453-7.879 24.64-6.778l85.862 23.37c4.513 1.229 8.294 4.172 10.648 8.287s2.975 8.866 1.746 13.379c-1.23 4.521-4.171 8.307-8.281 10.657s-8.863 2.968-13.384 1.737l-46.155-12.562c-4.64-1.265-9.434 1.825-10.049 6.783-.494 3.98 2.216 7.666 6.086 8.719l45.916 12.498c2.948.803 5.91 1.186 8.829 1.186 13.433-.002 25.877-8.122 31.107-20.8l83.654-48.296c3.491-2.015 7.58-2.543 11.516-1.489 3.936 1.055 7.213 3.558 9.227 7.048 4.188 7.253 1.695 16.559-5.556 20.746zm-214.923-140.902h.003 6.135v74.679c0 4.418 3.582 8 8 8h43.823c4.418 0 8-3.582 8-8v-74.679h6.132.006c4.938 0 9.362-2.76 11.545-7.202 2.168-4.413 1.638-9.583-1.383-13.492l-35.867-46.415c-2.146-2.776-5.268-4.719-8.752-5.134-4.604-.549-8.98 1.309-11.753 4.897l-36.049 46.65c-3.021 3.909-3.552 9.079-1.385 13.492 2.182 4.445 6.606 7.204 11.545 7.204zm36.05-54.329 29.619 38.329h-7.707c-4.418 0-8 3.582-8 8v74.679h-27.823v-74.679c0-4.418-3.582-8-8-8h-7.707zm77.869 137.008h43.823c4.418 0 8-3.582 8-8v-137.864h6.132.006c4.938 0 9.362-2.76 11.545-7.202 2.168-4.413 1.638-9.583-1.383-13.492l-36.052-46.655c-2.431-3.146-6.183-4.988-10.159-4.988-4.005 0-7.709 1.818-10.161 4.991l-36.051 46.652c-3.021 3.909-3.55 9.079-1.383 13.492 2.182 4.442 6.605 7.202 11.544 7.202h.003 6.135v137.864c.001 4.418 3.583 8 8.001 8zm21.912-200.193 29.619 38.329h-7.707c-4.418 0-8 3.582-8 8v137.864h-27.823v-137.864c0-4.418-3.582-8-8-8h-7.707zm145.991 78.767-36.05-46.652c-2.451-3.172-6.154-4.991-10.16-4.991 0 0-.001 0-.002 0-4.005 0-7.709 1.818-10.161 4.991l-36.05 46.652c-3.021 3.909-3.552 9.08-1.383 13.492 2.182 4.442 6.604 7.201 11.543 7.201h.006 6.133v92.732c0 4.418 3.582 8 8 8h43.823c4.418 0 8-3.582 8-8v-92.732h6.13.01c4.938 0 9.36-2.759 11.543-7.2 2.17-4.414 1.64-9.584-1.382-13.493zm-24.299 4.694c-4.418 0-8 3.582-8 8v92.732h-27.823v-92.732c0-4.418-3.582-8-8-8h-7.706l29.618-38.328 29.618 38.328zm-154.903-148.527-7.702 32.837c-.538 2.294-.172 4.762 1.214 6.667 2.567 3.528 7.201 4.306 10.671 2.203l29.026-17.578 29.026 17.578c1.277.773 2.712 1.157 4.144 1.157 2.495 0 4.981-1.165 6.601-3.463 1.334-1.892 1.668-4.316 1.14-6.57l-7.7-32.832 25.688-22.174c3.069-2.65 3.762-7.292 1.21-10.824-1.38-1.91-3.612-3.022-5.959-3.22l-33.624-2.824-13.073-31.1c-.913-2.171-2.658-3.95-4.899-4.675-4.149-1.342-8.355.751-9.928 4.492l-13.15 31.283-33.624 2.824c-2.348.197-4.58 1.31-5.959 3.22-2.552 3.532-1.86 8.174 1.21 10.824zm18.854-23.503c2.967-.249 5.55-2.126 6.704-4.871l7.653-18.206 7.653 18.206c1.154 2.745 3.737 4.622 6.704 4.871l19.68 1.652-14.95 12.905c-2.254 1.946-3.241 4.983-2.561 7.883l4.509 19.226-16.891-10.229c-1.273-.771-2.709-1.157-4.144-1.157s-2.871.386-4.144 1.157l-16.892 10.229 4.509-19.226c.68-2.9-.307-5.937-2.561-7.883l-14.95-12.905z"/></svg>