<svg id="Capa_1" fill="#00639a" enable-background="new 0 0 511.263 511.263" height="512" viewBox="0 0 511.263 511.263" width="512" xmlns="http://www.w3.org/2000/svg"><g><path d="m344.908 472.398h-191.864c-6.013 0-10.904-4.892-10.904-10.904v-411.725c0-6.013 4.892-10.904 10.904-10.904h57.804c4.142 0 7.5-3.357 7.5-7.5s-3.358-7.5-7.5-7.5h-57.804c-14.284 0-25.904 11.62-25.904 25.904v207.574c-3.86-1.109-7.788-1.964-11.762-2.541l.297-5.748c.153-2.977-.927-5.933-2.965-8.109-2.029-2.167-4.891-3.434-7.852-3.476-9.647-.14-19.308 1.062-28.706 3.567-6.411 1.71-12.679 4.028-18.629 6.891-2.668 1.284-4.73 3.636-5.66 6.454-.933 2.83-.67 5.967.721 8.604l2.494 4.724c-4.803 3.045-9.302 6.547-13.437 10.462l-3.934-3.481c-2.232-1.976-5.217-2.973-8.187-2.736-2.958.234-5.733 1.683-7.613 3.972-10.346 12.598-17.731 27.643-21.357 43.51-.66 2.888-.106 5.969 1.52 8.452 1.632 2.495 4.248 4.243 7.174 4.798l5.024.954c-.585 5.677-.618 11.401-.098 17.097l-5.054.885c-2.93.512-5.565 2.22-7.23 4.686-1.67 2.474-2.27 5.568-1.645 8.493.374 1.747.793 3.498 1.249 5.205 3.794 14.226 10.334 27.21 19.442 38.595 1.849 2.312 4.603 3.794 7.556 4.067 2.965.279 5.961-.682 8.22-2.626l4.077-3.513c4.065 3.939 8.5 7.483 13.246 10.586l-2.636 4.807c-1.433 2.613-1.746 5.744-.859 8.589.883 2.833 2.908 5.219 5.555 6.546 14.596 7.32 30.906 11.188 47.169 11.188h.046c2.963 0 5.843-1.227 7.902-3.365 2.069-2.148 3.19-5.091 3.077-8.069l-.224-5.922c3.876-.504 7.732-1.266 11.507-2.272.524-.14 1.047-.29 1.571-.44v33.319c0 14.284 11.621 25.904 25.904 25.904h191.864c4.142 0 7.5-3.357 7.5-7.5s-3.357-7.502-7.499-7.502zm-217.768-101.667c-.236.151-.467.314-.689.495-3.96 3.222-8.469 5.546-13.401 6.905-9.657 2.665-19.748 1.369-28.415-3.647-8.666-5.017-14.815-13.123-17.314-22.825-5.008-19.44 6.662-39.599 26.014-44.937 11.812-3.259 24.441-.474 33.806 7.446v56.563zm-5.435 43.39c-4.152 1.108-8.419 1.857-12.686 2.229-5.878.513-10.309 5.518-10.087 11.395l.204 5.402c-11.179-.522-22.292-3.158-32.556-7.721l2.414-4.399c2.874-5.236 1.111-11.72-4.012-14.76-5.909-3.506-11.292-7.806-16-12.779-4.041-4.269-10.704-4.6-15.169-.751l-3.692 3.181c-6.495-8.935-11.243-18.934-14.136-29.778-.042-.156-.083-.313-.124-.471l4.586-.803c5.856-1.024 9.82-6.426 9.024-12.297-.927-6.842-.888-13.761.117-20.566.862-5.85-3.025-11.298-8.848-12.402l-4.542-.862c3.001-10.785 8.031-21.028 14.735-30.014l3.559 3.148c4.421 3.911 11.094 3.663 15.192-.563 4.788-4.942 10.233-9.18 16.186-12.595 5.157-2.96 7.015-9.409 4.23-14.682l-2.274-4.308c3.95-1.681 8.035-3.086 12.192-4.194 6.713-1.791 13.577-2.805 20.459-3.026l-.271 5.229c-.304 5.877 4.03 10.939 9.863 11.526 5.817.587 11.545 1.873 17.07 3.819v23.166c-11.529-5.978-24.998-7.512-37.794-3.982-27.191 7.5-43.588 35.824-36.551 63.139 3.511 13.629 12.149 25.016 24.325 32.064 8.038 4.653 16.946 7.027 25.978 7.027 4.648 0 9.33-.629 13.94-1.9 3.529-.974 6.903-2.301 10.102-3.964v23.792c-1.797.631-3.612 1.215-5.434 1.7z"/><path d="m506.778 150.85-.083-.31c-.516-1.925-1.777-3.564-3.504-4.559-1.727-.993-3.778-1.26-5.703-.737l-14.082 3.816c-2.658-7.849-6.167-15.349-10.477-22.392l8.069-5.784c2.639-1.893 4.422-4.82 4.891-8.034.466-3.196-.398-6.491-2.372-9.039-3.565-4.602-7.452-8.957-11.602-13.052v-40.99c0-14.283-11.621-25.904-25.904-25.904h-200.163c-4.142 0-7.5 3.357-7.5 7.5s3.358 7.5 7.5 7.5h200.164c6.013 0 10.904 4.892 10.904 10.904v28.221c-6.561-4.8-13.552-9.016-20.88-12.539-2.904-1.395-6.308-1.553-9.335-.427-3.043 1.13-5.533 3.485-6.83 6.46l-3.786 8.678c-7.851-2.878-15.984-4.861-24.25-5.914l.479-9.273c.167-3.242-1.009-6.461-3.228-8.832-2.208-2.359-5.323-3.739-8.549-3.786-12.153-.174-24.312 1.337-36.145 4.492-8.072 2.153-15.964 5.072-23.457 8.677-2.904 1.396-5.149 3.957-6.161 7.025-1.017 3.085-.73 6.501.786 9.372l4.1 7.767c-7.188 4.382-13.859 9.574-19.888 15.479l-6.479-5.734c-2.432-2.151-5.681-3.233-8.917-2.979-3.219.257-6.239 1.831-8.285 4.322-13.027 15.861-22.327 34.806-26.893 54.786-.718 3.142-.116 6.495 1.653 9.198 1.778 2.718 4.627 4.624 7.816 5.229l8.331 1.582c-1.012 8.386-1.061 16.867-.145 25.287l-8.381 1.466c-3.191.558-6.061 2.418-7.873 5.104-1.819 2.695-2.471 6.067-1.791 9.252.469 2.196.999 4.402 1.574 6.558 4.776 17.91 13.012 34.26 24.477 48.594 2.012 2.516 5.009 4.129 8.224 4.427 3.227.301 6.495-.743 8.954-2.861l6.676-5.751c5.924 5.94 12.505 11.198 19.621 15.678l-4.31 7.857c-1.562 2.847-1.903 6.257-.938 9.356.961 3.084 3.165 5.682 6.045 7.127 18.378 9.217 38.914 14.088 59.394 14.088h.059c3.224-.001 6.357-1.337 8.598-3.665 2.252-2.34 3.474-5.543 3.351-8.788l-.359-9.498c5.502-.621 10.987-1.655 16.345-3.084 2.646-.706 5.29-1.517 7.893-2.421l3.717 8.93c1.249 2.998 3.7 5.395 6.725 6.575 3.01 1.175 6.415 1.075 9.342-.274 7.991-3.682 15.608-8.187 22.718-13.394v169.36c0 6.013-4.892 10.904-10.904 10.904h-66.104c-4.142 0-7.5 3.357-7.5 7.5s3.358 7.5 7.5 7.5h66.104c14.284 0 25.904-11.621 25.904-25.904v-182.141c3.679-3.639 7.147-7.492 10.374-11.539 2.009-2.521 2.92-5.803 2.498-9.007-.424-3.219-2.165-6.171-4.776-8.099l-8.082-5.968c4.429-6.976 8.071-14.412 10.86-22.177l9.71 2.778c3.122.895 6.525.472 9.334-1.155 2.796-1.62 4.841-4.345 5.612-7.476 5.309-21.553 5.078-44.325-.666-65.862zm-13.184 59.205-9.413-2.693c-6.21-1.774-12.662 1.623-14.682 7.74-2.768 8.388-6.674 16.365-11.61 23.711-3.576 5.323-2.324 12.488 2.852 16.312l7.823 5.777c-10.398 12.338-23.365 22.508-37.797 29.644l-3.604-8.658c-2.5-6.004-9.208-8.912-15.273-6.628-3.02 1.139-6.126 2.136-9.232 2.965-5.429 1.447-11.008 2.428-16.581 2.914-6.407.557-11.236 6.007-10.994 12.409l.346 9.163c-16.077-.435-32.111-4.235-46.733-11.08l4.171-7.605c3.126-5.701 1.208-12.76-4.366-16.068-7.725-4.583-14.762-10.205-20.918-16.709-4.397-4.643-11.651-5-16.515-.811l-6.428 5.537c-9.155-12.096-15.797-25.739-19.761-40.602-.248-.93-.486-1.87-.714-2.815l8.083-1.414c6.377-1.117 10.693-6.997 9.828-13.386-1.212-8.945-1.161-17.992.151-26.89.94-6.367-3.292-12.298-9.636-13.502l-8.024-1.523c4.01-15.58 11.267-30.361 21.151-43.084l6.238 5.521c4.815 4.261 12.082 3.993 16.541-.61 6.263-6.463 13.382-12.003 21.164-16.467 5.611-3.222 7.633-10.243 4.602-15.987l-3.96-7.502c5.785-2.593 11.811-4.731 17.957-6.37 9.479-2.527 19.19-3.867 28.913-3.99l-.462 8.938c-.329 6.397 4.386 11.911 10.736 12.552 8.85.893 17.548 3.016 25.853 6.31 6.029 2.392 12.789-.404 15.389-6.366l3.67-8.412c14.339 7.377 27.149 17.724 37.338 30.158l-7.803 5.593c-5.218 3.74-6.577 10.878-3.094 16.252 5.488 8.463 9.606 17.737 12.256 27.627.011.044.025.102.035.135.514 1.927 1.774 3.57 3.502 4.565 1.729.997 3.783 1.265 5.707.74l13.633-3.695c3.217 15.943 3.108 32.453-.339 48.304z"/><path d="m413.417 124.082c-16.334-9.456-35.355-11.897-53.556-6.878-36.48 10.062-58.478 48.063-49.038 84.708 4.71 18.284 16.3 33.562 32.634 43.018 10.784 6.243 22.737 9.429 34.854 9.429 6.236 0 12.518-.845 18.702-2.55v-.001c36.479-10.062 58.477-48.062 49.037-84.707-4.709-18.286-16.299-33.563-32.633-43.019zm-20.392 113.265c-14.295 3.943-29.228 2.023-42.053-5.399-12.825-7.425-21.925-19.421-25.624-33.778-7.412-28.771 9.86-58.605 38.5-66.506 4.858-1.34 9.79-2.003 14.688-2.003 9.513 0 18.899 2.502 27.365 7.402 12.825 7.425 21.925 19.421 25.624 33.779 7.412 28.771-9.859 58.605-38.5 66.505z"/><path d="m255.289 82.284c0-4.143-3.358-7.5-7.5-7.5h-71.651c-4.142 0-7.5 3.357-7.5 7.5s3.358 7.5 7.5 7.5h71.651c4.142 0 7.5-3.357 7.5-7.5z"/><path d="m178.498 119.373h45.379c4.142 0 7.5-3.357 7.5-7.5s-3.358-7.5-7.5-7.5h-45.379c-4.142 0-7.5 3.357-7.5 7.5s3.358 7.5 7.5 7.5z"/><path d="m178.498 192.006h45.379c4.142 0 7.5-3.357 7.5-7.5s-3.358-7.5-7.5-7.5h-45.379c-4.142 0-7.5 3.357-7.5 7.5s3.358 7.5 7.5 7.5z"/><path d="m178.498 227.007h45.379c4.142 0 7.5-3.357 7.5-7.5s-3.358-7.5-7.5-7.5h-45.379c-4.142 0-7.5 3.357-7.5 7.5s3.358 7.5 7.5 7.5z"/><path d="m281.986 290.375h-104.71c-4.142 0-7.5 3.357-7.5 7.5s3.358 7.5 7.5 7.5h104.71c4.142 0 7.5-3.357 7.5-7.5s-3.358-7.5-7.5-7.5z"/><path d="m180.725 334.964h66.316c4.142 0 7.5-3.357 7.5-7.5s-3.358-7.5-7.5-7.5h-66.316c-4.142 0-7.5 3.357-7.5 7.5s3.358 7.5 7.5 7.5z"/><path d="m170.998 431.407c0 7.829 6.37 14.199 14.199 14.199h51.301c7.83 0 14.2-6.37 14.2-14.199v-46.275l9.54-9.54c2.929-2.93 2.929-7.678 0-10.607-2.929-2.928-7.678-2.928-10.606 0l-4.141 4.141c-2.451-2.011-5.582-3.22-8.992-3.22h-51.301c-7.83 0-14.199 6.37-14.199 14.199v51.302zm15-50.501h47.712l-19.639 19.639-3.175-3.405c-2.825-3.03-7.571-3.196-10.6-.371-3.03 2.824-3.196 7.57-.372 10.6l8.472 9.087c1.388 1.488 3.32 2.349 5.354 2.385.044.001.087.001.131.001 1.987 0 3.896-.789 5.303-2.196l16.512-16.512v30.474h-49.7v-49.702z"/><path d="m419.124 379.882c0-4.143-3.358-7.5-7.5-7.5h-129.638c-4.142 0-7.5 3.357-7.5 7.5s3.358 7.5 7.5 7.5h129.638c4.142 0 7.5-3.358 7.5-7.5z"/><path d="m281.986 403.841c-4.142 0-7.5 3.357-7.5 7.5s3.358 7.5 7.5 7.5h50.228c4.142 0 7.5-3.357 7.5-7.5s-3.358-7.5-7.5-7.5z"/></g></svg>