<svg xmlns="http://www.w3.org/2000/svg" width="206" height="100" viewBox="0 0 206 100"><g id="Group_7" data-name="Group 7" transform="translate(-695 -48)"><rect id="Rectangle_3" data-name="Rectangle 3" width="206" height="100" transform="translate(695 48)" fill="#fff"></rect><g id="Group_6" data-name="Group 6" transform="translate(20 -158)"><path id="Path_2" data-name="Path 2" d="M39.793,35.217a47.031,47.031,0,0,0-4.474,2.074,1.411,1.411,0,0,1-.687.169,1.471,1.471,0,0,1-.7-2.773,50.069,50.069,0,0,1,4.823-2.207,1.471,1.471,0,1,1,1.037,2.737M30.146,53.3a1.459,1.459,0,0,1,2.074-.084,1.483,1.483,0,0,1,.1,2.086A32.9,32.9,0,0,0,25.3,67.16a1.471,1.471,0,0,1-1.4,1,1.591,1.591,0,0,1-.47-.072A1.471,1.471,0,0,1,22.5,66.22a35.778,35.778,0,0,1,7.645-12.891M35.175,48.8a35.681,35.681,0,0,1,9.888-5.221,1.471,1.471,0,0,1,.892,2.749,32.811,32.811,0,0,0-9.08,4.823,1.507,1.507,0,0,1-.88.289,1.471,1.471,0,0,1-.88-2.653m21.561-.856h1.652a1.473,1.473,0,1,1-.157,2.942h-1.5A26.879,26.879,0,0,0,29.809,77.736V84.2a1.483,1.483,0,0,1-2.954,0V77.736A29.845,29.845,0,0,1,56.675,47.927m-2.942,9.454a20.717,20.717,0,0,0-5.86,1.773,1.5,1.5,0,0,1-.639.145,1.477,1.477,0,0,1-.639-2.81,23.888,23.888,0,0,1,6.717-2.026,1.5,1.5,0,0,1,1.676,1.206,1.471,1.471,0,0,1-1.206,1.664M45.34,30.345a48.849,48.849,0,0,1,11.335-1.3,67.264,67.264,0,0,1,10.382,1.109V28.705A7.754,7.754,0,0,0,59.28,21H7.754A7.754,7.754,0,0,0,0,28.706V80.244A7.754,7.754,0,0,0,7.754,88h25.4V77.736A23.526,23.526,0,0,1,41,60.251a1.473,1.473,0,1,1,1.966,2.195,20.56,20.56,0,0,0-6.825,15.29V88.022h3.34V78.29A17.642,17.642,0,0,1,52.527,61.022a17,17,0,0,1,7.766-.109,1.483,1.483,0,0,1,1.025,2.038,1.459,1.459,0,0,1-1.628.856,13.4,13.4,0,0,0-7.235.338A15,15,0,0,0,42.4,78.519v9.5h3.34V77.736a10.925,10.925,0,0,1,7.5-10.358,1.471,1.471,0,0,1,.892,2.8,7.971,7.971,0,0,0-5.438,7.561V88.022h9.647V77.736a1.676,1.676,0,1,0-3.34,0v3.618a1.483,1.483,0,0,1-2.954,0V77.917a4.739,4.739,0,0,1,3.7-4.715,4.631,4.631,0,0,1,5.547,4.534V88.022H64.61V77.736a7.971,7.971,0,0,0-5.438-7.561h-.1a1.435,1.435,0,0,1-.965-1.387h0a1.471,1.471,0,0,1,1.869-1.423,12.059,12.059,0,0,1,4.257,2.568,17.763,17.763,0,0,1,2.822,3.883V67.824c-.916-.76-2.038-1.64-2.5-1.941a1.447,1.447,0,0,1-.494-1.8h0a1.5,1.5,0,0,1,2.195-.639l.8.6V60.022a20.343,20.343,0,0,0-7.452-2.641A1.471,1.471,0,0,1,58.4,55.717a1.5,1.5,0,0,1,1.676-1.206,23.02,23.02,0,0,1,6.97,2.183v-3.7a25.8,25.8,0,0,0-3.135-1.109,1.472,1.472,0,1,1,.8-2.834c.784.217,1.556.482,2.315.772v-3.5a33,33,0,0,0-10.346-1.736,34.713,34.713,0,0,0-4.815.336,1.474,1.474,0,1,1-.43-2.917,37.093,37.093,0,0,1,5.185-.374A54.4,54.4,0,0,1,67,43.031V39.413a83.132,83.132,0,0,0-10.322-1.121A39.118,39.118,0,0,0,28.229,50.423a1.483,1.483,0,0,1-1.073.458,1.435,1.435,0,0,1-1.013-.41,1.471,1.471,0,0,1,0-2.086,42.458,42.458,0,0,1,13.65-9.538A41.807,41.807,0,0,1,63.2,35.868c.82.145,2.412.47,3.871.784V33.239c-1.978-.362-4.474-.784-6.873-1.085-1.206-.1-2.339-.157-3.509-.157a45.545,45.545,0,0,0-10.708,1.266,1.476,1.476,0,1,1-.687-2.87" transform="translate(678 200)" fill="#00adee"></path><path id="Path_3" data-name="Path 3" d="M83.753,63.167H77.844V57.524h5.909c2.725,0,3.859,1.206,3.859,2.834s-1.133,2.81-3.859,2.81M77.844,49.529h5.113c2.412,0,3.714.9,3.714,2.6s-1.363,2.617-3.714,2.617H77.844ZM87.3,55.908a4.51,4.51,0,0,0,3.232-4.486c0-3.292-2.327-4.992-6.5-4.992H72.9v3.1h1.326V66.266H84.705a7.392,7.392,0,0,0,5.2-1.531A5.161,5.161,0,0,0,91.518,60.9a4.908,4.908,0,0,0-4.148-5.028" transform="translate(693.007 205.295)" fill="#404041"></path><path id="Path_51" data-name="Path 51" d="M83.753,63.167H77.844V57.524h5.909c2.725,0,3.859,1.206,3.859,2.834s-1.133,2.81-3.859,2.81M77.844,49.529h5.113c2.412,0,3.714.9,3.714,2.6s-1.363,2.617-3.714,2.617H77.844ZM87.3,55.908a4.51,4.51,0,0,0,3.232-4.486c0-3.292-2.327-4.992-6.5-4.992H72.9v3.1h1.326V66.266H84.705a7.392,7.392,0,0,0,5.2-1.531A5.161,5.161,0,0,0,91.518,60.9a4.908,4.908,0,0,0-4.148-5.028" transform="translate(693.007 205.295)" fill="#404041"></path><path id="Path_4" data-name="Path 4" d="M102.012,60.986a6.789,6.789,0,0,1-4.4,1.761,2.894,2.894,0,0,1-3.183-3.208V54.2h1.206V51.11H91v9.43a4.715,4.715,0,0,0,5.161,5.053,9.538,9.538,0,0,0,5.848-2.11V65.3h3.461V51.11h-3.461Z" transform="translate(696.731 206.259)" fill="#404041"></path><path id="Path_59" data-name="Path 59" d="M102.012,60.986a6.789,6.789,0,0,1-4.4,1.761,2.894,2.894,0,0,1-3.183-3.208V54.2h1.206V51.11H91v9.43a4.715,4.715,0,0,0,5.161,5.053,9.538,9.538,0,0,0,5.848-2.11V65.3h3.461V51.11h-3.461Z" transform="translate(696.731 206.259)" fill="#404041"></path><path id="Path_5" data-name="Path 5" d="M113.519,57.062l-1.58-.434c-1.966-.531-2.412-.844-2.412-1.664,0-1.061.772-1.568,2.327-1.568a9.852,9.852,0,0,1,4.7,1.254l1.206-2.243a11.3,11.3,0,0,0-5.824-1.568c-3.545,0-5.7,1.616-5.7,4.341a3.039,3.039,0,0,0,1.025,2.412,10.262,10.262,0,0,0,3.618,1.616l1.8.482c1.785.543,2.207.844,2.207,1.676,0,1.206-.844,1.761-2.581,1.761a11.058,11.058,0,0,1-5.535-1.616l-1.206,2.183a12.059,12.059,0,0,0,6.62,1.905c3.75,0,5.933-1.652,5.933-4.5,0-2.122-1.278-3.232-4.606-4.136" transform="translate(699.731 206.203)" fill="#404041"></path><path id="Path_64" data-name="Path 64" d="M113.519,57.062l-1.58-.434c-1.966-.531-2.412-.844-2.412-1.664,0-1.061.772-1.568,2.327-1.568a9.852,9.852,0,0,1,4.7,1.254l1.206-2.243a11.3,11.3,0,0,0-5.824-1.568c-3.545,0-5.7,1.616-5.7,4.341a3.039,3.039,0,0,0,1.025,2.412,10.262,10.262,0,0,0,3.618,1.616l1.8.482c1.785.543,2.207.844,2.207,1.676,0,1.206-.844,1.761-2.581,1.761a11.058,11.058,0,0,1-5.535-1.616l-1.206,2.183a12.059,12.059,0,0,0,6.62,1.905c3.75,0,5.933-1.652,5.933-4.5,0-2.122-1.278-3.232-4.606-4.136" transform="translate(699.731 206.203)" fill="#404041"></path><path id="Path_6" data-name="Path 6" d="M125.9,57.062l-1.592-.434c-1.953-.531-2.412-.844-2.412-1.664,0-1.061.76-1.568,2.327-1.568a9.852,9.852,0,0,1,4.715,1.254l1.206-2.243a11.3,11.3,0,0,0-5.824-1.568c-3.545,0-5.7,1.616-5.7,4.341a3.075,3.075,0,0,0,1.013,2.412,10.238,10.238,0,0,0,3.618,1.616l1.8.482c1.785.543,2.207.844,2.207,1.676,0,1.206-.856,1.761-2.581,1.761a11.058,11.058,0,0,1-5.463-1.568L118,63.743a12.059,12.059,0,0,0,6.608,1.905c3.75,0,5.933-1.652,5.933-4.5,0-2.122-1.266-3.232-4.594-4.136" transform="translate(702.291 206.203)" fill="#404041"></path><path id="Path_66" data-name="Path 66" d="M125.9,57.062l-1.592-.434c-1.953-.531-2.412-.844-2.412-1.664,0-1.061.76-1.568,2.327-1.568a9.852,9.852,0,0,1,4.715,1.254l1.206-2.243a11.3,11.3,0,0,0-5.824-1.568c-3.545,0-5.7,1.616-5.7,4.341a3.075,3.075,0,0,0,1.013,2.412,10.238,10.238,0,0,0,3.618,1.616l1.8.482c1.785.543,2.207.844,2.207,1.676,0,1.206-.856,1.761-2.581,1.761a11.058,11.058,0,0,1-5.463-1.568L118,63.743a12.059,12.059,0,0,0,6.608,1.905c3.75,0,5.933-1.652,5.933-4.5,0-2.122-1.266-3.232-4.594-4.136" transform="translate(702.291 206.203)" fill="#404041"></path><path id="Path_7" data-name="Path 7" d="M150.673,50.873a8.658,8.658,0,0,0-6.029,2.3,4.558,4.558,0,0,0-4.257-2.3,8.284,8.284,0,0,0-5.511,2.219V51.162H130.21v3.1h1.206V65.355h3.461V55.214a5.945,5.945,0,0,1,4-1.531c1.821,0,2.954,1.206,2.954,3.244v8.441h3.437V57.2a9.356,9.356,0,0,0-.193-1.99,6.548,6.548,0,0,1,4.221-1.531c1.821,0,2.93,1.206,2.93,3.244v8.441h3.461V55.925a4.691,4.691,0,0,0-5.053-5.053" transform="translate(704.805 206.207)" fill="#404041"></path><path id="Path_72" data-name="Path 72" d="M150.673,50.873a8.658,8.658,0,0,0-6.029,2.3,4.558,4.558,0,0,0-4.257-2.3,8.284,8.284,0,0,0-5.511,2.219V51.162H130.21v3.1h1.206V65.355h3.461V55.214a5.945,5.945,0,0,1,4-1.531c1.821,0,2.954,1.206,2.954,3.244v8.441h3.437V57.2a9.356,9.356,0,0,0-.193-1.99,6.548,6.548,0,0,1,4.221-1.531c1.821,0,2.93,1.206,2.93,3.244v8.441h3.461V55.925a4.691,4.691,0,0,0-5.053-5.053" transform="translate(704.805 206.207)" fill="#404041"></path><path id="Path_8" data-name="Path 8" d="M164.4,61.886a7.344,7.344,0,0,1-4.028,1.206c-1.845,0-2.93-.8-2.93-2.183s1.109-2.195,3.015-2.195H164.4Zm3.437-5.728c0-3.388-2.195-5.318-6.029-5.318a12.444,12.444,0,0,0-6.608,1.881l1.1,2.412a8.441,8.441,0,0,1,4.655-1.5c2.243,0,3.413.989,3.413,2.894V56.7h-4.823c-3.413,0-5.535,1.676-5.535,4.426s2.038,4.522,5.306,4.522a7.705,7.705,0,0,0,5.053-1.845v1.556h4.667v-3.1h-1.206Z" transform="translate(709.704 206.203)" fill="#404041"></path><path id="Path_84" data-name="Path 84" d="M164.4,61.886a7.344,7.344,0,0,1-4.028,1.206c-1.845,0-2.93-.8-2.93-2.183s1.109-2.195,3.015-2.195H164.4Zm3.437-5.728c0-3.388-2.195-5.318-6.029-5.318a12.444,12.444,0,0,0-6.608,1.881l1.1,2.412a8.441,8.441,0,0,1,4.655-1.5c2.243,0,3.413.989,3.413,2.894V56.7h-4.823c-3.413,0-5.535,1.676-5.535,4.426s2.038,4.522,5.306,4.522a7.705,7.705,0,0,0,5.053-1.845v1.556h4.667v-3.1h-1.206Z" transform="translate(709.704 206.203)" fill="#404041"></path><path id="Path_9" data-name="Path 9" d="M165.794,42.352a2.062,2.062,0,1,0-2.062,2.062,2.062,2.062,0,0,0,2.062-2.062" transform="translate(711.281 204.031)" fill="#404041"></path><path id="Path_89" data-name="Path 89" d="M165.794,42.352a2.062,2.062,0,1,0-2.062,2.062,2.062,2.062,0,0,0,2.062-2.062" transform="translate(711.281 204.031)" fill="#404041"></path><path id="Path_10" data-name="Path 10" d="M170.49,37.5H156.14V32.674c1.206-.832,5.668-3.557,10.093-3.557a3.618,3.618,0,0,1,3.232,1.447,6.2,6.2,0,0,1,1.025,3.618Zm-30.219,0h-2.918c-2.617,0-4.317-1.363-4.317-3.859a3.762,3.762,0,0,1,4.148-3.991,6.379,6.379,0,0,1,3.087.711Zm-56.784,0H80.569c-2.617,0-4.317-1.363-4.317-3.859a3.762,3.762,0,0,1,4.136-3.991h3.1ZM181.1,26.512v3.135h1.29v7.115a11.793,11.793,0,0,1-4.4.736h-4.148V33.687a8.019,8.019,0,0,0-1.941-5.812,6.741,6.741,0,0,0-5.113-2.014,20.994,20.994,0,0,0-10.624,3.5V26.512H151.5v3.135h1.29v7.9h-9.116V28.068a13.53,13.53,0,0,0-6.21-1.556c-4.655,0-7.754,2.81-7.754,7.235a7.56,7.56,0,0,0,.651,3.123,8.634,8.634,0,0,1-3.5.627h-40v-7.85h1.29V26.512h-7.5c-4.655,0-7.754,2.81-7.754,7.235s3.232,7.235,8.152,7.235h45.823a9.538,9.538,0,0,0,5.535-1.616,9.044,9.044,0,0,0,5.438,1.616h40.5a15.592,15.592,0,0,0,4.052-.591,11.625,11.625,0,0,0,3.376-1.471V26.512Z" transform="translate(693.007 201.059)" fill="#404041"></path><path id="Path_52" data-name="Path 52" d="M170.49,37.5H156.14V32.674c1.206-.832,5.668-3.557,10.093-3.557a3.618,3.618,0,0,1,3.232,1.447,6.2,6.2,0,0,1,1.025,3.618Zm-30.219,0h-2.918c-2.617,0-4.317-1.363-4.317-3.859a3.762,3.762,0,0,1,4.148-3.991,6.379,6.379,0,0,1,3.087.711Zm-56.784,0H80.569c-2.617,0-4.317-1.363-4.317-3.859a3.762,3.762,0,0,1,4.136-3.991h3.1ZM181.1,26.512v3.135h1.29v7.115a11.793,11.793,0,0,1-4.4.736h-4.148V33.687a8.019,8.019,0,0,0-1.941-5.812,6.741,6.741,0,0,0-5.113-2.014,20.994,20.994,0,0,0-10.624,3.5V26.512H151.5v3.135h1.29v7.9h-9.116V28.068a13.53,13.53,0,0,0-6.21-1.556c-4.655,0-7.754,2.81-7.754,7.235a7.56,7.56,0,0,0,.651,3.123,8.634,8.634,0,0,1-3.5.627h-40v-7.85h1.29V26.512h-7.5c-4.655,0-7.754,2.81-7.754,7.235s3.232,7.235,8.152,7.235h45.823a9.538,9.538,0,0,0,5.535-1.616,9.044,9.044,0,0,0,5.438,1.616h40.5a15.592,15.592,0,0,0,4.052-.591,11.625,11.625,0,0,0,3.376-1.471V26.512Z" transform="translate(693.007 201.059)" fill="#404041"></path><path id="Path_11" data-name="Path 11" d="M77.424,25.05a2.038,2.038,0,1,0-1.469-.588,2.05,2.05,0,0,0,1.469.588" transform="translate(693.512 200.05)" fill="#404041"></path><path id="Path_53" data-name="Path 53" d="M77.424,25.05a2.038,2.038,0,1,0-1.469-.588,2.05,2.05,0,0,0,1.469.588" transform="translate(693.512 200.05)" fill="#404041"></path><path id="Path_12" data-name="Path 12" d="M81.983,25.048A2.05,2.05,0,1,0,80.09,23a2.05,2.05,0,0,0,1.893,2.044" transform="translate(694.487 200.052)" fill="#404041"></path><path id="Path_55" data-name="Path 55" d="M81.983,25.048A2.05,2.05,0,1,0,80.09,23a2.05,2.05,0,0,0,1.893,2.044" transform="translate(694.487 200.052)" fill="#404041"></path><path id="Path_13" data-name="Path 13" d="M80.585,71.5l-2.508,6.126H76.594L74.11,71.5h1.278l1.953,4.956L79.3,71.5Z" transform="translate(693.256 210.456)" fill="#00adee"></path><path id="Path_54" data-name="Path 54" d="M80.585,71.5l-2.508,6.126H76.594L74.11,71.5h1.278l1.953,4.956L79.3,71.5Z" transform="translate(693.256 210.456)" fill="#00adee"></path><path id="Path_14" data-name="Path 14" d="M84.2,77.333H83.136v-.482a2.412,2.412,0,0,1-1.556.579c-1.013,0-1.64-.567-1.64-1.4s.651-1.363,1.7-1.363h1.5c0-.591-.362-.892-1.049-.892a2.593,2.593,0,0,0-1.435.458l-.35-.748a3.859,3.859,0,0,1,2.026-.567c1.206,0,1.869.6,1.869,1.64ZM83.136,75.3H81.93c-.591,0-.929.253-.929.675s.326.675.9.675a2.291,2.291,0,0,0,1.206-.362Z" transform="translate(694.456 210.748)" fill="#00adee"></path><path id="Path_56" data-name="Path 56" d="M84.2,77.333H83.136v-.482a2.412,2.412,0,0,1-1.556.579c-1.013,0-1.64-.567-1.64-1.4s.651-1.363,1.7-1.363h1.5c0-.591-.362-.892-1.049-.892a2.593,2.593,0,0,0-1.435.458l-.35-.748a3.859,3.859,0,0,1,2.026-.567c1.206,0,1.869.6,1.869,1.64ZM83.136,75.3H81.93c-.591,0-.929.253-.929.675s.326.675.9.675a2.291,2.291,0,0,0,1.206-.362Z" transform="translate(694.456 210.748)" fill="#00adee"></path><path id="Path_15" data-name="Path 15" d="M85.761,77.626H84.7V71.5h1.061Z" transform="translate(695.436 210.456)" fill="#00adee"></path><path id="Path_57" data-name="Path 57" d="M85.761,77.626H84.7V71.5h1.061Z" transform="translate(695.436 210.456)" fill="#00adee"></path><path id="Path_16" data-name="Path 16" d="M91.282,73v4.377H90.209v-.555a2.918,2.918,0,0,1-1.8.651,1.459,1.459,0,0,1-1.592-1.568V73H87.87v2.6a.892.892,0,0,0,.989.989,2.074,2.074,0,0,0,1.351-.543V73Z" transform="translate(695.872 210.765)" fill="#00adee"></path><path id="Path_58" data-name="Path 58" d="M91.282,73v4.377H90.209v-.555a2.918,2.918,0,0,1-1.8.651,1.459,1.459,0,0,1-1.592-1.568V73H87.87v2.6a.892.892,0,0,0,.989.989,2.074,2.074,0,0,0,1.351-.543V73Z" transform="translate(695.872 210.765)" fill="#00adee"></path><path id="Path_17" data-name="Path 17" d="M95.867,77.336H94.806v-.482a2.412,2.412,0,0,1-1.556.579c-1.013,0-1.64-.567-1.64-1.4s.663-1.363,1.712-1.363h1.483c0-.591-.362-.892-1.049-.892a2.593,2.593,0,0,0-1.435.446l-.338-.748A3.823,3.823,0,0,1,94,72.91c1.206,0,1.869.6,1.869,1.64ZM94.806,75.3H93.6c-.579,0-.928.253-.928.675s.338.675.9.675a2.291,2.291,0,0,0,1.206-.362Z" transform="translate(696.859 210.746)" fill="#00adee"></path><path id="Path_60" data-name="Path 60" d="M95.867,77.336H94.806v-.482a2.412,2.412,0,0,1-1.556.579c-1.013,0-1.64-.567-1.64-1.4s.663-1.363,1.712-1.363h1.483c0-.591-.362-.892-1.049-.892a2.593,2.593,0,0,0-1.435.446l-.338-.748A3.823,3.823,0,0,1,94,72.91c1.206,0,1.869.6,1.869,1.64ZM94.806,75.3H93.6c-.579,0-.928.253-.928.675s.338.675.9.675a2.291,2.291,0,0,0,1.206-.362Z" transform="translate(696.859 210.746)" fill="#00adee"></path><path id="Path_18" data-name="Path 18" d="M99.34,77.306a2.412,2.412,0,0,1-1.206.314,1.411,1.411,0,0,1-1.483-1.531V74H96v-.8h.7V72h1.061v1.206h1.206v.856H97.761v1.929a.711.711,0,0,0,.76.784,1.5,1.5,0,0,0,.675-.157Z" transform="translate(697.763 210.559)" fill="#00adee"></path><path id="Path_61" data-name="Path 61" d="M99.34,77.306a2.412,2.412,0,0,1-1.206.314,1.411,1.411,0,0,1-1.483-1.531V74H96v-.8h.7V72h1.061v1.206h1.206v.856H97.761v1.929a.711.711,0,0,0,.76.784,1.5,1.5,0,0,0,.675-.157Z" transform="translate(697.763 210.559)" fill="#00adee"></path><path id="Path_19" data-name="Path 19" d="M100.391,72.682A.555.555,0,0,1,99.8,72.1a.6.6,0,1,1,1.206,0,.555.555,0,0,1-.615.579Zm.531,4.944H99.86V73.309h1.061Z" transform="translate(698.544 210.456)" fill="#00adee"></path><path id="Path_62" data-name="Path 62" d="M100.391,72.682A.555.555,0,0,1,99.8,72.1a.6.6,0,1,1,1.206,0,.555.555,0,0,1-.615.579Zm.531,4.944H99.86V73.309h1.061Z" transform="translate(698.544 210.456)" fill="#00adee"></path><path id="Path_20" data-name="Path 20" d="M104.286,77.438a2.279,2.279,0,1,1,2.412-2.279,2.327,2.327,0,0,1-2.412,2.279Zm0-.916a1.35,1.35,0,1,0-.975-.391A1.363,1.363,0,0,0,104.286,76.521Z" transform="translate(699.026 210.741)" fill="#00adee"></path><path id="Path_63" data-name="Path 63" d="M104.286,77.438a2.279,2.279,0,1,1,2.412-2.279,2.327,2.327,0,0,1-2.412,2.279Zm0-.916a1.35,1.35,0,1,0-.975-.391A1.363,1.363,0,0,0,104.286,76.521Z" transform="translate(699.026 210.741)" fill="#00adee"></path><path id="Path_21" data-name="Path 21" d="M111.532,77.332h-1.061V74.74a.9.9,0,0,0-.977-1,2.086,2.086,0,0,0-1.351.555v3.039H107.07V73.016h1.121v.555a3,3,0,0,1,1.8-.639,1.459,1.459,0,0,1,1.592,1.556Z" transform="translate(700.041 210.749)" fill="#00adee"></path><path id="Path_65" data-name="Path 65" d="M111.532,77.332h-1.061V74.74a.9.9,0,0,0-.977-1,2.086,2.086,0,0,0-1.351.555v3.039H107.07V73.016h1.121v.555a3,3,0,0,1,1.8-.639,1.459,1.459,0,0,1,1.592,1.556Z" transform="translate(700.041 210.749)" fill="#00adee"></path><path id="Path_22" data-name="Path 22" d="M123.313,76.212v1.025h-.145a2.93,2.93,0,0,1-1.459-.35,2.134,2.134,0,0,1-1.688.784,2.1,2.1,0,0,1-1.206-.326,2.255,2.255,0,0,1-.6-.567h0a.531.531,0,0,0-.6.6,23.491,23.491,0,0,0,.193,2.786h-.977a23.106,23.106,0,0,1-.2-2.773c0-.916.458-1.29,1.206-1.29h.072a2.412,2.412,0,0,1-.072-.615,2.158,2.158,0,1,1,4.317,0,2.41,2.41,0,0,1,0,.543,2.508,2.508,0,0,0,1.049.205Zm-3.3-1.978a1.206,1.206,0,1,0,1.206,1.206A1.206,1.206,0,0,0,120.008,74.234Z" transform="translate(702.007 210.833)" fill="#00adee"></path><path id="Path_67" data-name="Path 67" d="M123.313,76.212v1.025h-.145a2.93,2.93,0,0,1-1.459-.35,2.134,2.134,0,0,1-1.688.784,2.1,2.1,0,0,1-1.206-.326,2.255,2.255,0,0,1-.6-.567h0a.531.531,0,0,0-.6.6,23.491,23.491,0,0,0,.193,2.786h-.977a23.106,23.106,0,0,1-.2-2.773c0-.916.458-1.29,1.206-1.29h.072a2.412,2.412,0,0,1-.072-.615,2.158,2.158,0,1,1,4.317,0,2.41,2.41,0,0,1,0,.543,2.508,2.508,0,0,0,1.049.205Zm-3.3-1.978a1.206,1.206,0,1,0,1.206,1.206A1.206,1.206,0,0,0,120.008,74.234Z" transform="translate(702.007 210.833)" fill="#00adee"></path><path id="Path_23" data-name="Path 23" d="M124.34,76.745h-2.4V75.72h2.412Z" transform="translate(703.102 211.325)" fill="#00adee"></path><path id="Path_68" data-name="Path 68" d="M124.34,76.745h-2.4V75.72h2.412Z" transform="translate(703.102 211.325)" fill="#00adee"></path><path id="Path_24" data-name="Path 24" d="M126.1,76.745h-2.4V75.72h2.412Z" transform="translate(703.465 211.325)" fill="#00adee"></path><path id="Path_69" data-name="Path 69" d="M126.1,76.745h-2.4V75.72h2.412Z" transform="translate(703.465 211.325)" fill="#00adee"></path><path id="Path_25" data-name="Path 25" d="M127.87,76.745h-2.4V75.72h2.412Z" transform="translate(703.829 211.325)" fill="#00adee"></path><path id="Path_70" data-name="Path 70" d="M127.87,76.745h-2.4V75.72h2.412Z" transform="translate(703.829 211.325)" fill="#00adee"></path><path id="Path_26" data-name="Path 26" d="M129.63,76.745h-2.4V75.72h2.412Z" transform="translate(704.191 211.325)" fill="#00adee"></path><path id="Path_71" data-name="Path 71" d="M129.63,76.745h-2.4V75.72h2.412Z" transform="translate(704.191 211.325)" fill="#00adee"></path><path id="Path_27" data-name="Path 27" d="M131.41,76.745h-2.4V75.72h2.412Z" transform="translate(704.558 211.325)" fill="#00adee"></path><path id="Path_73" data-name="Path 73" d="M131.41,76.745h-2.4V75.72h2.412Z" transform="translate(704.558 211.325)" fill="#00adee"></path><path id="Path_28" data-name="Path 28" d="M133.16,76.745h-2.4V75.72h2.412Z" transform="translate(704.918 211.325)" fill="#00adee"></path><path id="Path_74" data-name="Path 74" d="M133.16,76.745h-2.4V75.72h2.412Z" transform="translate(704.918 211.325)" fill="#00adee"></path><path id="Path_29" data-name="Path 29" d="M134.92,76.745h-2.4V75.72h2.412Z" transform="translate(705.28 211.325)" fill="#00adee"></path><path id="Path_75" data-name="Path 75" d="M134.92,76.745h-2.4V75.72h2.412Z" transform="translate(705.28 211.325)" fill="#00adee"></path><path id="Path_30" data-name="Path 30" d="M136.68,76.745h-2.4V75.72h2.412Z" transform="translate(705.643 211.325)" fill="#00adee"></path><path id="Path_76" data-name="Path 76" d="M136.68,76.745h-2.4V75.72h2.412Z" transform="translate(705.643 211.325)" fill="#00adee"></path><path id="Path_31" data-name="Path 31" d="M138.41,76.745h-2.4V75.72h2.412Z" transform="translate(705.999 211.325)" fill="#00adee"></path><path id="Path_77" data-name="Path 77" d="M138.41,76.745h-2.4V75.72h2.412Z" transform="translate(705.999 211.325)" fill="#00adee"></path><path id="Path_32" data-name="Path 32" d="M140.21,76.745h-2.4V75.72h2.412Z" transform="translate(706.369 211.325)" fill="#00adee"></path><path id="Path_78" data-name="Path 78" d="M140.21,76.745h-2.4V75.72h2.412Z" transform="translate(706.369 211.325)" fill="#00adee"></path><path id="Path_33" data-name="Path 33" d="M143.489,76.268v1.025h-.145a3.546,3.546,0,0,1-1.809-.458,3.618,3.618,0,0,1-1.821.458h-.145V76.268h.145a2.906,2.906,0,0,0,1.314-.277V73.06h1.013v2.93a2.882,2.882,0,0,0,1.3.277Zm-2.761,1.664a.615.615,0,1,1-.632.261A.615.615,0,0,1,140.728,77.932Zm1.652,0a.615.615,0,1,1-.6.615.6.6,0,0,1,.6-.615Z" transform="translate(706.732 210.777)" fill="#00adee"></path><path id="Path_79" data-name="Path 79" d="M143.489,76.268v1.025h-.145a3.546,3.546,0,0,1-1.809-.458,3.618,3.618,0,0,1-1.821.458h-.145V76.268h.145a2.906,2.906,0,0,0,1.314-.277V73.06h1.013v2.93a2.882,2.882,0,0,0,1.3.277Zm-2.761,1.664a.615.615,0,1,1-.632.261A.615.615,0,0,1,140.728,77.932Zm1.652,0a.615.615,0,1,1-.6.615.6.6,0,0,1,.6-.615Z" transform="translate(706.732 210.777)" fill="#00adee"></path><path id="Path_34" data-name="Path 34" d="M144.99,76.745h-2.4V75.72H145Z" transform="translate(707.353 211.325)" fill="#00adee"></path><path id="Path_80" data-name="Path 80" d="M144.99,76.745h-2.4V75.72H145Z" transform="translate(707.353 211.325)" fill="#00adee"></path><path id="Path_35" data-name="Path 35" d="M148.263,76.268v1.025h-.133a3.618,3.618,0,0,1-1.809-.458,3.545,3.545,0,0,1-1.809.458h-.133V76.268h.133a2.906,2.906,0,0,0,1.314-.277V73.06h1.013v2.93a2.906,2.906,0,0,0,1.314.277ZM145.5,77.932a.615.615,0,1,1-.632.261A.615.615,0,0,1,145.5,77.932Zm1.652,0a.615.615,0,1,1-.6.615.6.6,0,0,1,.6-.615Z" transform="translate(707.722 210.777)" fill="#00adee"></path><path id="Path_81" data-name="Path 81" d="M148.263,76.268v1.025h-.133a3.618,3.618,0,0,1-1.809-.458,3.545,3.545,0,0,1-1.809.458h-.133V76.268h.133a2.906,2.906,0,0,0,1.314-.277V73.06h1.013v2.93a2.906,2.906,0,0,0,1.314.277ZM145.5,77.932a.615.615,0,1,1-.632.261A.615.615,0,0,1,145.5,77.932Zm1.652,0a.615.615,0,1,1-.6.615.6.6,0,0,1,.6-.615Z" transform="translate(707.722 210.777)" fill="#00adee"></path><path id="Path_36" data-name="Path 36" d="M149.77,76.745h-2.4V75.72h2.412Z" transform="translate(708.337 211.325)" fill="#00adee"></path><path id="Path_82" data-name="Path 82" d="M149.77,76.745h-2.4V75.72h2.412Z" transform="translate(708.337 211.325)" fill="#00adee"></path><path id="Path_37" data-name="Path 37" d="M155.319,77.716H149.29V76.679h1.748a2.086,2.086,0,0,1-.868-1.7,1.978,1.978,0,0,1,2.171-1.941,1.953,1.953,0,0,1,2.146,1.941,2.11,2.11,0,0,1-.856,1.7h1.736Zm-3.871-6.644a.615.615,0,1,1-.615.615.6.6,0,0,1,.615-.615Zm0,4.92a2.038,2.038,0,0,0,.808.543,2.291,2.291,0,0,0,.784-.543,1.29,1.29,0,0,0,.35-.88A1.061,1.061,0,0,0,152.256,74a1.085,1.085,0,0,0-1.206,1.109,1.206,1.206,0,0,0,.434.88Zm1.628-4.92a.615.615,0,1,1-.494.6.615.615,0,0,1,.494-.6Z" transform="translate(708.733 210.365)" fill="#00adee"></path><path id="Path_83" data-name="Path 83" d="M155.319,77.716H149.29V76.679h1.748a2.086,2.086,0,0,1-.868-1.7,1.978,1.978,0,0,1,2.171-1.941,1.953,1.953,0,0,1,2.146,1.941,2.11,2.11,0,0,1-.856,1.7h1.736Zm-3.871-6.644a.615.615,0,1,1-.615.615.6.6,0,0,1,.615-.615Zm0,4.92a2.038,2.038,0,0,0,.808.543,2.291,2.291,0,0,0,.784-.543,1.29,1.29,0,0,0,.35-.88A1.061,1.061,0,0,0,152.256,74a1.085,1.085,0,0,0-1.206,1.109,1.206,1.206,0,0,0,.434.88Zm1.628-4.92a.615.615,0,1,1-.494.6.615.615,0,0,1,.494-.6Z" transform="translate(708.733 210.365)" fill="#00adee"></path><path id="Path_38" data-name="Path 38" d="M156.58,76.745h-2.4V75.72h2.412Z" transform="translate(709.739 211.325)" fill="#00adee"></path><path id="Path_85" data-name="Path 85" d="M156.58,76.745h-2.4V75.72h2.412Z" transform="translate(709.739 211.325)" fill="#00adee"></path><path id="Path_39" data-name="Path 39" d="M159.857,76.609v1.025h-.133a3.618,3.618,0,0,1-1.809-.458,3.618,3.618,0,0,1-1.821.458h-.145V76.609h.145a2.906,2.906,0,0,0,1.314-.277V73.4h1.013v2.93a2.906,2.906,0,0,0,1.314.277Zm-2.761-5.2a.615.615,0,1,1-.627.615.6.6,0,0,1,.627-.615Zm1.652,0a.615.615,0,1,1-.494.6A.615.615,0,0,1,158.748,71.412Z" transform="translate(710.104 210.435)" fill="#00adee"></path><path id="Path_86" data-name="Path 86" d="M159.857,76.609v1.025h-.133a3.618,3.618,0,0,1-1.809-.458,3.618,3.618,0,0,1-1.821.458h-.145V76.609h.145a2.906,2.906,0,0,0,1.314-.277V73.4h1.013v2.93a2.906,2.906,0,0,0,1.314.277Zm-2.761-5.2a.615.615,0,1,1-.627.615.6.6,0,0,1,.627-.615Zm1.652,0a.615.615,0,1,1-.494.6A.615.615,0,0,1,158.748,71.412Z" transform="translate(710.104 210.435)" fill="#00adee"></path><path id="Path_40" data-name="Path 40" d="M161.41,76.745h-2.4V75.72h2.412Z" transform="translate(710.734 211.325)" fill="#00adee"></path><path id="Path_87" data-name="Path 87" d="M161.41,76.745h-2.4V75.72h2.412Z" transform="translate(710.734 211.325)" fill="#00adee"></path><path id="Path_41" data-name="Path 41" d="M164.663,76.591v1.025h-.133a3.618,3.618,0,0,1-1.809-.458,3.545,3.545,0,0,1-1.809.458h-.133V76.591h.133a2.906,2.906,0,0,0,1.314-.277V71.49h1.013v4.823a2.943,2.943,0,0,0,1.314.277Z" transform="translate(711.098 210.454)" fill="#00adee"></path><path id="Path_88" data-name="Path 88" d="M164.663,76.591v1.025h-.133a3.618,3.618,0,0,1-1.809-.458,3.545,3.545,0,0,1-1.809.458h-.133V76.591h.133a2.906,2.906,0,0,0,1.314-.277V71.49h1.013v4.823a2.943,2.943,0,0,0,1.314.277Z" transform="translate(711.098 210.454)" fill="#00adee"></path><path id="Path_42" data-name="Path 42" d="M166.212,76.745a3.413,3.413,0,0,1-2.327.88h-.145V76.6h.145a2.978,2.978,0,0,0,1.314-.277V71.5h1.013Z" transform="translate(711.707 210.456)" fill="#00adee"></path><path id="Path_90" data-name="Path 90" d="M166.212,76.745a3.413,3.413,0,0,1-2.327.88h-.145V76.6h.145a2.978,2.978,0,0,0,1.314-.277V71.5h1.013Z" transform="translate(711.707 210.456)" fill="#00adee"></path></g></g></svg>